<svg xmlns="http://www.w3.org/2000/svg" fill="#2a2a2a" viewBox="0 0 122 122">
<path d="M63.77,16.9h7.51q3.43.2,3.43,2.64A6.76,6.76,0,0,1,73.33,24a2.82,2.82,0,0,0-2-.85h-21A3.38,3.38,0,0,1,47.91,22,3.6,3.6,0,0,1,47,19.61a5.76,5.76,0,0,1,1.32-3.56,4,4,0,0,0,2,.85h3.82a10.46,10.46,0,0,1-2-6.26,8.7,8.7,0,0,1,3.26-7A13,13,0,0,1,64,.88c3.39,0,5.93.86,7.65,2.58A5,5,0,0,1,72.8,5.93,4.69,4.69,0,0,1,72.4,9a2.85,2.85,0,0,1-2.83,1.48,7.25,7.25,0,0,1-4-1c.39,0,.7-.26.92-.79a3.12,3.12,0,0,0,.07-1.91V6.75a7.37,7.37,0,0,0-2.31-.39,5,5,0,0,0-3.66,1.41,5,5,0,0,0-1.42,3.73C59.15,14.57,60.69,16.38,63.77,16.9ZM59.42,30a17.47,17.47,0,0,1,11.14,3.7q-2.06,3.23-2,12.78L68.91,80q.47,29.46.46,33.15A7.93,7.93,0,0,1,67.2,119a8.11,8.11,0,0,1-6,2.17,17.39,17.39,0,0,1-11.14-3.69q2-3.22,2-12.78l-.4-33.56Q51.25,41.69,51.24,38a7.94,7.94,0,0,1,2.18-5.87A8.11,8.11,0,0,1,59.42,30Z"/>
</svg>