<svg xmlns="http://www.w3.org/2000/svg" fill="#fafafa" viewBox="0 0 180 130">
<path d="M69.76,92.13H60.05c-3.19,0-5.41-1-6.64-2.93A22,22,0,0,1,46,101.46,19.69,19.69,0,0,1,33.19,106,37,37,0,0,1,21,104.09a27,27,0,0,1-9.59-5.68,24.76,24.76,0,0,1-6.35-9.89,40.39,40.39,0,0,1-2.25-14q0-4.68,1.17-6.86a4,4,0,0,1,3.76-2.17q2.6,0,7,2.78a12.49,12.49,0,0,0-1.66,6.3q0,10.65,6.3,15.09a15.49,15.49,0,0,0,4,1.91,20.27,20.27,0,0,0,4.76.9,12.63,12.63,0,0,0,4.91-.64,13.46,13.46,0,0,0,4.32-2.39,11.16,11.16,0,0,0,3.12-4.66,19.84,19.84,0,0,0,1.2-7.23q0-1-.25-11-.19-8-.19-10.16A5.84,5.84,0,0,1,42.84,52a5.94,5.94,0,0,1,4.41-1.59,13,13,0,0,1,8.26,2.69Q54,55.51,54,62.54q0,4,0,9.08l.1,10H69.76ZM24.21,56.05a5.21,5.21,0,0,1-3.81-1.44,5,5,0,0,1-1.47-3.74,5.75,5.75,0,0,1,1.81-4.25,6.14,6.14,0,0,1,4.44-1.75,5.47,5.47,0,0,1,3.89,1.44A4.72,4.72,0,0,1,30.6,49.9a5.87,5.87,0,0,1-1.83,4.37A6.31,6.31,0,0,1,24.21,56.05Z"/>
<path d="M127.43,92.13H117.37q-5.81,0-7.22-5-5.24,5-13.82,5H89.25q-5,0-7.38-2.68-2,2.68-6.29,2.68H67.81V81.58h7.77A3.38,3.38,0,0,0,78.24,80a6.82,6.82,0,0,0,1.24-4.1L79.63,62q0-6.68-1.47-8.93a13.11,13.11,0,0,1,8.16-2.59q13.32-.48,21.07,5.81t8.18,17.48a17.39,17.39,0,0,1-1.52,7.81h13.38ZM95.79,81.58q8.29,0,8.3-7.86,0-4.2-3.66-8.69a14.94,14.94,0,0,0-8.16-5.52l-.39,17.73a5,5,0,0,0,.93,3.12A3.49,3.49,0,0,0,95.79,81.58Z"/>
<path d="M125.48,81.58h9.08a3.36,3.36,0,0,0,3.08-1.39,9.21,9.21,0,0,0,.87-4.66q0-1.08-.24-10.11T138,56.19a5.77,5.77,0,0,1,1.61-4.32A6,6,0,0,1,144,50.29,12.93,12.93,0,0,1,152.28,53q-1.46,2.4-1.46,9.42l.1,9.87c0,3.68.05,6.7.05,9.08q0,10.74-9.82,10.74H125.48Zm6.44,15.73a5.51,5.51,0,0,1,3.91,1.46,4.77,4.77,0,0,1,1.56,3.62,5.82,5.82,0,0,1-1.85,4.39,6.44,6.44,0,0,1-4.59,1.76,5.18,5.18,0,0,1-3.81-1.44,5,5,0,0,1-1.47-3.74,5.54,5.54,0,0,1,1.86-4.25A6,6,0,0,1,131.92,97.31Zm14.7,0a5.3,5.3,0,0,1,3.91,1.51,4.6,4.6,0,0,1,1.56,3.57,5.64,5.64,0,0,1-1.86,4.34,6.19,6.19,0,0,1-4.59,1.81,5.21,5.21,0,0,1-3.81-1.44,5,5,0,0,1-1.46-3.74,5.54,5.54,0,0,1,1.86-4.25A6,6,0,0,1,146.62,97.31Z"/>
<path d="M168.59,14.84h5.57c1.69.09,2.54.75,2.54,1.95a5,5,0,0,1-1,3.32,2.05,2.05,0,0,0-1.51-.63H158.58a2.5,2.5,0,0,1-1.73-.88,2.66,2.66,0,0,1-.66-1.76,4.3,4.3,0,0,1,1-2.64,3,3,0,0,0,1.51.64h2.83A7.75,7.75,0,0,1,160,10.2,6.45,6.45,0,0,1,162.42,5a9.68,9.68,0,0,1,6.37-2,7.69,7.69,0,0,1,5.66,1.91,3.71,3.71,0,0,1,.83,1.83A3.49,3.49,0,0,1,175,9a2.12,2.12,0,0,1-2.1,1.1,5.37,5.37,0,0,1-3-.73c.29,0,.52-.2.68-.59a2.22,2.22,0,0,0,0-1.41v0a5.22,5.22,0,0,0-1.71-.3,3.68,3.68,0,0,0-2.71,1.05,3.73,3.73,0,0,0-1.05,2.76A3.68,3.68,0,0,0,168.59,14.84Zm-3.22,9.66a12.94,12.94,0,0,1,8.25,2.74q-1.51,2.39-1.51,9.47l.29,24.86q.34,21.83.34,24.56a5.83,5.83,0,0,1-1.61,4.34,6,6,0,0,1-4.44,1.61,12.93,12.93,0,0,1-8.25-2.73c1-1.6,1.51-4.75,1.51-9.47L159.66,55q-.34-21.83-.34-24.56a5.83,5.83,0,0,1,1.61-4.34A6,6,0,0,1,165.37,24.5Z"/>
</svg>